<!DOCTYPE svg PUBLIC "-//W3C//DTD SVG 1.1//EN" "http://www.w3.org/Graphics/SVG/1.1/DTD/svg11.dtd">
<!-- Uploaded to: SVG Repo, www.svgrepo.com, Transformed by: SVG Repo Mixer Tools -->
<svg fill="#000000" height="800px" width="800px" version="1.1" id="Layer_1" xmlns="http://www.w3.org/2000/svg" xmlns:xlink="http://www.w3.org/1999/xlink" viewBox="0 0 512 512" xml:space="preserve">
<g id="SVGRepo_bgCarrier" stroke-width="0"/>
<g id="SVGRepo_tracerCarrier" stroke-linecap="round" stroke-linejoin="round"/>
<g id="SVGRepo_iconCarrier"> <g> <g> <path d="M331.204,256l177.81-177.808c3.983-3.984,3.983-10.442,0-14.425l-60.78-60.78c-3.984-3.983-10.442-3.983-14.425,0 L256,180.796L78.192,2.987c-3.984-3.983-10.442-3.983-14.425,0L2.987,63.766c-3.983,3.984-3.983,10.442,0,14.425L180.796,256 L2.987,433.809c-3.983,3.984-3.983,10.442,0,14.425l60.779,60.78c3.984,3.983,10.442,3.983,14.425,0L256,331.204l177.809,177.809 c1.991,1.992,4.602,2.987,7.212,2.987c2.611,0,5.221-0.995,7.212-2.986l60.78-60.78c3.983-3.984,3.983-10.442,0-14.425 L331.204,256z M441.02,487.377L263.212,309.568c-1.991-1.992-4.602-2.987-7.212-2.987c-2.61,0-5.22,0.995-7.212,2.987 L70.979,487.377L24.623,441.02l177.809-177.808c3.983-3.984,3.983-10.442,0-14.425L24.623,70.979l46.356-46.356l177.809,177.81 c3.984,3.983,10.442,3.983,14.425,0L441.02,24.623l46.356,46.356L309.568,248.788c-3.983,3.984-3.983,10.442,0,14.425 L487.377,441.02L441.02,487.377z"/> </g> </g> <g> <g> <path d="M432.519,399.735L318.288,285.504c-3.984-3.983-10.442-3.983-14.425,0c-3.983,3.984-3.983,10.442,0,14.425L418.095,414.16 c1.991,1.992,4.602,2.987,7.212,2.987c2.61,0,5.221-0.995,7.213-2.987C436.502,410.176,436.502,403.718,432.519,399.735z"/> </g> </g> <g> <g> <path d="M467.707,434.922l-7.647-7.647c-3.984-3.983-10.442-3.984-14.425,0s-3.983,10.442,0,14.425l7.647,7.647 c1.991,1.992,4.602,2.987,7.212,2.987c2.61,0,5.221-0.995,7.213-2.987C471.689,445.363,471.689,438.905,467.707,434.922z"/> </g> </g> </g>
</svg>