<!DOCTYPE svg PUBLIC "-//W3C//DTD SVG 1.1//EN" "http://www.w3.org/Graphics/SVG/1.1/DTD/svg11.dtd">
<!-- Uploaded to: SVG Repo, www.svgrepo.com, Transformed by: SVG Repo Mixer Tools -->
<svg fill="#000000" version="1.1" id="Capa_1" xmlns="http://www.w3.org/2000/svg" xmlns:xlink="http://www.w3.org/1999/xlink" width="800px" height="800px" viewBox="0 0 192.335 192.336" xml:space="preserve">
<g id="SVGRepo_bgCarrier" stroke-width="0"/>
<g id="SVGRepo_tracerCarrier" stroke-linecap="round" stroke-linejoin="round"/>
<g id="SVGRepo_iconCarrier"> <g> <g> <path d="M179.654,32.299c-0.139-2.01-2.304-3.606-4.118-2.904c-1.793-2.323-4.499-4.16-6.597-6.076 c-4.918-4.492-9.935-8.877-15.162-13.006c-3.294-2.602-12.336-10.323-18.151-9.26c-0.092-0.119-0.179-0.24-0.284-0.356 c-1.383-1.513-4.344-0.396-4.173,1.728c0.162,2.027-4.168,5.982-5.526,7.428c-4.752,5.056-10.077,9.599-15.356,14.088 C97.886,34.482,84.908,44.36,71.785,53.979c-11.677,8.559-23.844,16.2-34.543,26.037c-8.341,7.67-17.06,16.851-21.632,27.356 c-4.663,10.714-3.046,23.665-2.166,34.949c0.12,1.533,1.393,2.183,2.52,1.997c9.35,12.575,27.758,31.612,44.236,26.699 c10.756-3.206,20.306-12.798,28.495-20.017c5.969-5.263,11.975-10.427,18.062-15.549c14.503-12.202,28.769-24.697,42.921-37.305 c6.229-5.55,12.437-11.134,18.483-16.885c2.089-1.987,5.443-4.44,6.409-7.455c0.458-0.028,0.907-0.142,1.224-0.369 c3.312-2.366,2.847-8.179,3.053-11.809C179.404,51.843,180.333,42.109,179.654,32.299z M64.786,129.936 c-0.611,10.749-0.21,21.488-0.178,32.245c-1.989,1.181-4.061,2.215-6.232,2.988c0.665-4.618-0.643-9.924-1.088-14.373 c-0.793-7.936-1.227-15.848-0.168-23.774c0.134-1.005-0.658-2.032-1.45-2.528c-7.772-4.865-15.046-10.502-22.303-16.092 c-0.626-0.481-5.298-4.86-8.291-5.837c1.77-2.48,3.672-4.887,5.671-7.225c11.008,8.852,22.637,16.848,33.064,26.436 c0.987,0.908,2.309,1.086,3.496,0.451c11.246-6.018,20.478-15.139,29.037-24.459c1.088-1.185,1.158-2.977,0-4.154 c-6.733-6.84-13.057-14.08-19.731-20.978c-1.719-1.777-5.55-6.869-9.153-8.271c6.563-4.623,13.12-9.252,19.536-14.109 c12.781-9.676,25.466-19.597,37.267-30.462c2.561-2.358,10.105-8.322,11.941-13.645c1.589,0.803,3.296,1.452,4.805,2.345 c4.757,2.817,9.057,6.406,13.271,9.959c3.975,3.351,7.779,6.901,11.626,10.397c1.648,1.499,3.387,3.559,5.401,4.841 c-15.429,17.443-31.752,34.026-48.797,49.898c-17.288,16.098-35.21,32.38-55.452,44.674c-0.009,0.005-0.013,0.015-0.022,0.021 C66.047,128.03,64.864,128.564,64.786,129.936z M173.067,56.295c-0.174,2.315-0.271,4.613-0.402,6.93 c-0.077,1.14-0.168,2.278-0.274,3.416c-0.072,0.83-0.14,1.433-0.196,1.862c-0.424,0.335-0.7,0.84-0.734,1.486 c-0.971,0.296-1.785,1.088-1.843,2.385c0.084-1.927,0.479-1.755-1.325,0.18c-1.675,1.799-3.479,3.484-5.26,5.177 c-5.358,5.09-10.872,10.019-16.383,14.943c-12.925,11.549-26.017,22.915-39.197,34.171c-0.657,0.562-1.31,1.133-1.965,1.698 c-0.146-4.126-0.51-8.233-1-12.333c-0.064-1.731-0.082-3.469-0.02-5.22c0.033-0.959-0.644-1.413-1.355-1.4 c6.609-5.74,12.926-11.783,19.114-17.417c18.074-16.456,35.298-33.831,51.553-52.083 C173.779,45.494,173.473,50.888,173.067,56.295z"/> <path d="M97.523,166.724c-1.688-0.978-3.481,0.614-3.113,2.393c0.902,4.354,3.779,7.559-0.968,10.964 c-3.434,2.464-7.554,1.953-7.596-2.783c-0.03-3.276-4.754-3.181-5.016,0c-0.243,2.952-1.844,5.723-5.183,5.118 c-3.96-0.719-3.265-4.796-2.504-7.631c0.471-1.757-1.799-2.504-2.773-1.169c-3.579,4.903-1.644,11.22,4.082,13.136 c3.693,1.234,6.661-0.228,8.657-2.738c2.665,2.752,7.262,3.191,11.632,1.232C101.342,182.286,104.859,170.965,97.523,166.724z"/> <path d="M124.87,130.321c-2.741,0.097-3.581,4.43-0.672,4.966c3.092,0.572,8.256,1.439,6.179,5.8 c-1.884,3.956-6.755,4.227-10.382,2.842c-0.336-0.134-0.656-0.283-1.013-0.397c-2.692-0.864-4.576,3.444-1.944,4.612 c0.199,0.088,0.405,0.162,0.607,0.244l-0.005,0.01c0.22,0.067,0.414,0.162,0.624,0.239c0,0,0.007,0.003,0.01,0.004 c1.282,0.471,2.419,1.103,3.531,1.82c-1.197,1.817-3.169,2.838-5.342,3.45c-0.864,0.244-4.488,0.689-4.826,0.014 c-0.786-1.568-3.425-0.465-2.84,1.196c1.165,3.313,4.938,3.571,7.988,3.069c4.783-0.787,8.611-3.367,10.396-7.944 c0.11-0.284,0.137-0.569,0.105-0.846c3.301-0.714,6.216-2.672,7.908-6.21C138.666,135.942,131.877,130.074,124.87,130.321z"/> <path d="M131.428,159.527c-2.327-0.039-3.548,3.559-1.246,4.6c3.814,1.726,9.101,3.191,6.055,8.36 c-2.815,4.777-8.857,4.02-12.485,0.827c-0.002,0.003-0.005,0.005-0.007,0.008c-0.17-0.134-0.334-0.275-0.508-0.405 c-2.325-1.733-5.201,2.08-3.077,3.988c0.427,0.384,0.874,0.735,1.332,1.068c3.151,2.851,3.095,6.715-0.848,9.229 c-5.381,3.433-7.504-2.561-7.613-6.993c-0.042-1.693-2.349-1.587-2.553,0c-0.484,3.774-0.216,8.596,3.325,10.921 c2.832,1.859,6.198,1.35,9.099-0.063c3.07-1.495,5.378-4.615,5.825-7.988c0.102-0.771,0.066-1.502-0.026-2.211 c4.381,0.536,8.816-1.01,11.722-5.259C145.327,168.445,139.91,159.67,131.428,159.527z"/> </g> </g> </g>
</svg>